# xmcd CD database file
#
# Track frame offsets:
#	150
#	2745
#	18128
#	35419
#	55248
#	87775
#	107981
#	126134
#	143424
#	168198
#	193489
#	224625
#	245773
#	272419
#
# Disc length: 3680 seconds
#
# Revision: 0
# Processed by: cddbd v1.5.2PL0 Copyright (c) Steve Scherf et al.
# Submitted via: CDex 1.51
#
DISCID=c00e5e0e
DTITLE=Various Artist - Blue Note Records Festival Edition 2006
DYEAR=2006
DGENRE=Jazz
TTITLE0=Lefto and Krewcial - Lee Morgan 'Introduction'
TTITLE1=Raul Midón - State of mind
TTITLE2=Dr. John - The monkey
TTITLE3=Dianne Reeves - Loads of love
TTITLE4=Wayne Shorter - Night dreamer
TTITLE5=Jason Moran - Aubade
TTITLE6=Madredeus - Fado das duvidas
TTITLE7=Paolo Fresu - T.R.E.A.P. #1
TTITLE8=Tony Allen - Aye le
TTITLE9=Tania Maria - Intimidade
TTITLE10=Chucho Valdés - La comparsa
TTITLE11=Mariza - Primavera
TTITLE12=Robert Glasper - I remember
TTITLE13=Buscemi - Ronny Jordan 'Breauxlude'
EXTD=YEAR: 2006
EXTT0=
EXTT1=
EXTT2=
EXTT3=
EXTT4=
EXTT5=
EXTT6=
EXTT7=
EXTT8=
EXTT9=
EXTT10=
EXTT11=
EXTT12=
EXTT13=
PLAYORDER=
